<svg width="123" height="123" viewBox="0 0 123 123" fill="none" xmlns="http://www.w3.org/2000/svg">
<rect width="123" height="123" rx="61.5" fill="#222831"/>
<path d="M68.1953 42.0005H68.5499H78.9991C80.1916 42.0042 81.3342 42.4796 82.1774 43.3228C83.0205 44.166 83.4959 45.3084 83.4998 46.5007C83.4998 46.5011 83.4998 46.5015 83.4998 46.5019V81.4986C83.4998 81.499 83.4998 81.4994 83.4998 81.4998C83.4959 82.6921 83.0205 83.8345 82.1774 84.6776C81.3343 85.5208 80.1919 85.9961 78.9996 86C78.9992 86 78.9988 86 78.9983 86H44.0017C44.0013 86 44.0009 86 44.0005 86C42.8081 85.9961 41.6657 85.5208 40.8226 84.6776C39.9794 83.8344 39.504 82.6918 39.5002 81.4993V46.5012C39.504 45.3087 39.9794 44.1661 40.8226 43.3228C41.6659 42.4796 42.8084 42.0042 44.0009 42.0005H54.4501H54.8047L54.922 41.6657C55.3996 40.3022 56.2892 39.1207 57.4676 38.2849C58.6461 37.449 60.0552 37 61.5 37C62.9448 37 64.3539 37.449 65.5324 38.2849C66.7108 39.1207 67.6004 40.3022 68.0781 41.6657L68.1953 42.0005ZM61.5 41.0005L61.4985 41.0005C60.704 41.0028 59.9427 41.3195 59.3809 41.8813C58.8191 42.4431 58.5024 43.2044 58.5 43.9989V44.0004C58.5 44.5938 58.676 45.1738 59.0056 45.6671C59.3353 46.1605 59.8038 46.545 60.352 46.772C60.9001 46.9991 61.5033 47.0585 62.0853 46.9428C62.6672 46.827 63.2018 46.5413 63.6213 46.1217C64.0409 45.7022 64.3266 45.1676 64.4423 44.5857C64.5581 44.0038 64.4987 43.4006 64.2716 42.8524L63.8097 43.0437L64.2716 42.8524C64.0446 42.3042 63.6601 41.8357 63.1667 41.506L62.8889 41.9218L63.1667 41.506C62.6734 41.1764 62.0934 41.0005 61.5 41.0005ZM56.8539 53.647L56.5003 53.293L56.1465 53.6468L46.1466 63.6467L45.7931 64.0002L46.1466 64.3538L49.6816 67.8887L50.035 68.2422L50.3885 67.8889L56.4998 61.7824L63.1263 68.4136L63.48 68.7676L63.8337 68.4136L73.3052 58.9348L76.1416 61.849L76.9999 62.7308V61.5003V51.5004V51.0004H76.4999H66.5H65.2687L66.1514 51.8588L69.0629 54.6903L63.4752 60.2779L56.8539 53.647ZM78.9998 79.5001H79.4998V79.0001V74.0001V73.5001H78.9998H44.0002H43.5002V74.0001V79.0001V79.5001H44.0002H78.9998Z" fill="black" stroke="#FDFDFD"/>
</svg>
