<svg width="76" height="76" viewBox="0 0 76 76" fill="none" xmlns="http://www.w3.org/2000/svg">
<g clip-path="url(#clip0_34_181)">
<path d="M27.4531 0.5C31.9795 0.5 35.6562 4.17676 35.6562 8.70312V67.2969C35.6562 71.8232 31.9795 75.5 27.4531 75.5C23.2197 75.5 19.7334 72.292 19.2939 68.1611C18.5322 68.3662 17.7266 68.4688 16.9062 68.4688C11.7354 68.4688 7.53125 64.2646 7.53125 59.0938C7.53125 58.0098 7.72168 56.9551 8.05859 55.9883C3.63477 54.3184 0.5 50.041 0.5 45.0312C0.5 40.3584 3.23926 36.3154 7.20898 34.4404C5.93457 32.8438 5.1875 30.8223 5.1875 28.625C5.1875 24.1279 8.35156 20.3779 12.5703 19.4551C12.3359 18.6494 12.2188 17.7852 12.2188 16.9062C12.2188 12.5264 15.2363 8.83496 19.2939 7.80957C19.7334 3.70801 23.2197 0.5 27.4531 0.5ZM48.5469 0.5C52.7803 0.5 56.252 3.70801 56.7061 7.80957C60.7783 8.83496 63.7812 12.5117 63.7812 16.9062C63.7812 17.7852 63.6641 18.6494 63.4297 19.4551C67.6484 20.3633 70.8125 24.1279 70.8125 28.625C70.8125 30.8223 70.0654 32.8438 68.791 34.4404C72.7607 36.3154 75.5 40.3584 75.5 45.0312C75.5 50.041 72.3652 54.3184 67.9414 55.9883C68.2783 56.9551 68.4688 58.0098 68.4688 59.0938C68.4688 64.2646 64.2646 68.4688 59.0938 68.4688C58.2734 68.4688 57.4678 68.3662 56.7061 68.1611C56.2666 72.292 52.7803 75.5 48.5469 75.5C44.0205 75.5 40.3438 71.8232 40.3438 67.2969V8.70312C40.3438 4.17676 44.0205 0.5 48.5469 0.5Z" fill="#FAFAFA"/>
<path d="M52.185 36.52L47.4225 50.81C47.3461 51.0386 47.2158 51.2454 47.0427 51.4129C46.8695 51.5805 46.6584 51.7038 46.4275 51.7725L17.2325 60.4525C16.9694 60.5306 16.69 60.5351 16.4246 60.4655C16.1593 60.3958 15.9181 60.2547 15.7273 60.0575C15.5365 59.8603 15.4035 59.6145 15.3427 59.347C15.2819 59.0794 15.2957 58.8003 15.3825 58.54L24.8625 30.105C24.9304 29.9009 25.0415 29.7137 25.1882 29.5563C25.3348 29.3988 25.5136 29.2748 25.7125 29.1925L39.18 23.6475C39.4538 23.5344 39.7549 23.505 40.0454 23.5628C40.336 23.6206 40.6029 23.7632 40.8125 23.9725L51.8225 34.985C52.0195 35.182 52.1577 35.4299 52.2218 35.701C52.2858 35.9722 52.273 36.2557 52.185 36.52ZM16.24 59.505L32.15 43.595L16.24 59.505Z" fill="#222831"/>
<path d="M16.24 59.505L32.15 43.595M52.185 36.52L47.4225 50.81C47.3461 51.0386 47.2158 51.2454 47.0426 51.4129C46.8695 51.5805 46.6584 51.7038 46.4275 51.7725L17.2325 60.4525C16.9695 60.5306 16.69 60.5351 16.4246 60.4655C16.1593 60.3958 15.9181 60.2547 15.7273 60.0575C15.5365 59.8603 15.4035 59.6145 15.3427 59.347C15.2819 59.0794 15.2957 58.8003 15.3825 58.54L24.8625 30.105C24.9304 29.9009 25.0415 29.7137 25.1882 29.5563C25.3348 29.3988 25.5136 29.2748 25.7125 29.1925L39.18 23.6475C39.4538 23.5344 39.7549 23.505 40.0454 23.5628C40.336 23.6206 40.6029 23.7632 40.8125 23.9725L51.8225 34.985C52.0195 35.182 52.1577 35.4299 52.2218 35.701C52.2858 35.9722 52.273 36.2557 52.185 36.52Z" stroke="#FDFDFD" stroke-width="1.5" stroke-linecap="round" stroke-linejoin="round"/>
<path d="M54.0074 15.955L59.9174 21.865C60.3615 22.2899 60.7163 22.7993 60.9609 23.3631C61.2055 23.927 61.335 24.5341 61.3418 25.1487C61.3486 25.7633 61.2326 26.373 61.0005 26.9422C60.7684 27.5113 60.425 28.0284 59.9904 28.463C59.5558 28.8976 59.0387 29.241 58.4696 29.4731C57.9004 29.7052 57.2907 29.8212 56.6761 29.8144C56.0615 29.8076 55.4544 29.6781 54.8905 29.4335C54.3267 29.1889 53.8173 28.8341 53.3924 28.39L47.4799 22.48C46.646 21.6084 46.1865 20.4449 46.1999 19.2387C46.2132 18.0324 46.6983 16.8794 47.5513 16.0264C48.4043 15.1734 49.5573 14.6883 50.7636 14.675C51.9698 14.6616 53.1358 15.1211 54.0074 15.955Z" fill="black" stroke="#FDFDFD" stroke-width="1.5" stroke-linecap="round" stroke-linejoin="round"/>
<path d="M37.4525 38.29C37.1065 37.9319 36.6927 37.6462 36.2352 37.4497C35.7777 37.2531 35.2856 37.1497 34.7877 37.1453C34.2898 37.141 33.796 37.2359 33.3351 37.4245C32.8743 37.613 32.4556 37.8915 32.1035 38.2436C31.7514 38.5957 31.4729 39.0143 31.2844 39.4752C31.0958 39.9361 31.0009 40.4299 31.0053 40.9278C31.0096 41.4257 31.113 41.9178 31.3096 42.3753C31.5061 42.8328 31.7918 43.2466 32.15 43.5925C32.8572 44.2756 33.8045 44.6536 34.7877 44.6451C35.7709 44.6365 36.7115 44.2421 37.4068 43.5469C38.1021 42.8516 38.4964 41.911 38.505 40.9278C38.5135 39.9446 38.1355 38.9973 37.4525 38.29Z" fill="#FAFAFA" stroke="#FDFDFD" stroke-width="1.5" stroke-linecap="round" stroke-linejoin="round"/>
</g>
<defs>
<clipPath id="clip0_34_181">
<rect width="75" height="75" fill="white" transform="translate(0.5 0.5)"/>
</clipPath>
</defs>
</svg>
