<svg width="93" height="93" viewBox="0 0 93 93" fill="none" xmlns="http://www.w3.org/2000/svg">
<path fill-rule="evenodd" clip-rule="evenodd" d="M34.875 46.5H26.0865C25.2334 47.9775 23.9167 49.1322 22.3406 49.7851C20.7644 50.4379 19.0168 50.5525 17.3689 50.1109C15.721 49.6694 14.2648 48.6964 13.2263 47.3429C12.1877 45.9894 11.6248 44.331 11.6248 42.625C11.6248 40.919 12.1877 39.2606 13.2263 37.9071C14.2648 36.5536 15.721 35.5806 17.3689 35.1391C19.0168 34.6975 20.7644 34.8121 22.3406 35.4649C23.9167 36.1178 25.2334 37.2725 26.0865 38.75H34.875V19.375C34.875 17.3196 35.6915 15.3483 37.1449 13.8949C38.5983 12.4415 40.5695 11.625 42.625 11.625H73.625C75.6804 11.625 77.6516 12.4415 79.105 13.8949C80.5584 15.3483 81.375 17.3196 81.375 19.375V73.625C81.375 75.6804 80.5584 77.6517 79.105 79.1051C77.6516 80.5585 75.6804 81.375 73.625 81.375H42.625C40.5695 81.375 38.5983 80.5585 37.1449 79.1051C35.6915 77.6517 34.875 75.6804 34.875 73.625V46.5ZM42.625 46.5V73.625H73.625V19.375H42.625V38.75H51.4135C52.2665 37.2725 53.5832 36.1178 55.1594 35.4649C56.7355 34.8121 58.4831 34.6975 60.131 35.1391C61.7789 35.5806 63.2351 36.5536 64.2736 37.9071C65.3122 39.2606 65.8752 40.919 65.8752 42.625C65.8752 44.331 65.3122 45.9894 64.2736 47.3429C63.2351 48.6964 61.7789 49.6694 60.131 50.1109C58.4831 50.5525 56.7355 50.4379 55.1594 49.7851C53.5832 49.1322 52.2665 47.9775 51.4135 46.5H42.625Z" fill="#FDFDFD"/>
</svg>
