<svg width="30" height="30" viewBox="0 0 30 30" fill="none" xmlns="http://www.w3.org/2000/svg">
<mask id="mask0_144_89" style="mask-type:luminance" maskUnits="userSpaceOnUse" x="0" y="0" width="30" height="30">
<path d="M0 0H30V30H0V0Z" fill="white"/>
<path d="M10.9615 17.8846C10.8085 17.8846 10.6618 17.8238 10.5536 17.7156C10.4454 17.6074 10.3846 17.4607 10.3846 17.3077C10.3846 17.1547 10.4454 17.0079 10.5536 16.8998C10.6618 16.7916 10.8085 16.7308 10.9615 16.7308H19.0385C19.1915 16.7308 19.3382 16.7916 19.4464 16.8998C19.5546 17.0079 19.6154 17.1547 19.6154 17.3077C19.6154 17.4607 19.5546 17.6074 19.4464 17.7156C19.3382 17.8238 19.1915 17.8846 19.0385 17.8846H10.9615ZM10.9615 20.7692C10.8085 20.7692 10.6618 20.7085 10.5536 20.6003C10.4454 20.4921 10.3846 20.3453 10.3846 20.1923C10.3846 20.0393 10.4454 19.8926 10.5536 19.7844C10.6618 19.6762 10.8085 19.6154 10.9615 19.6154H19.0385C19.1915 19.6154 19.3382 19.6762 19.4464 19.7844C19.5546 19.8926 19.6154 20.0393 19.6154 20.1923C19.6154 20.3453 19.5546 20.4921 19.4464 20.6003C19.3382 20.7085 19.1915 20.7692 19.0385 20.7692H10.9615Z" fill="black"/>
<path fill-rule="evenodd" clip-rule="evenodd" d="M16.3673 4.61539H8.65383C8.19481 4.61539 7.75458 4.79774 7.43 5.12232C7.10541 5.4469 6.92307 5.88713 6.92307 6.34616V23.6538C6.92307 24.1129 7.10541 24.5531 7.43 24.8777C7.75458 25.2023 8.19481 25.3846 8.65383 25.3846H21.3461C21.8052 25.3846 22.2454 25.2023 22.57 24.8777C22.8946 24.5531 23.0769 24.1129 23.0769 23.6538V11.7715C23.0768 11.3382 22.9142 10.9207 22.6211 10.6015L17.6434 5.17616C17.4812 4.99932 17.284 4.85816 17.0643 4.76162C16.8446 4.66508 16.6073 4.61528 16.3673 4.61539ZM8.07691 6.34616C8.07691 6.19315 8.13769 6.0464 8.24589 5.93821C8.35408 5.83002 8.50082 5.76923 8.65383 5.76923H16.3673C16.4474 5.76915 16.5265 5.78572 16.5998 5.8179C16.6731 5.85008 16.7389 5.89716 16.7931 5.95616L21.7708 11.3815C21.8686 11.4879 21.9229 11.6271 21.9231 11.7715V23.6538C21.9231 23.8069 21.8623 23.9536 21.7541 24.0618C21.6459 24.17 21.4992 24.2308 21.3461 24.2308H8.65383C8.50082 24.2308 8.35408 24.17 8.24589 24.0618C8.13769 23.9536 8.07691 23.8069 8.07691 23.6538V6.34616Z" fill="black"/>
<path d="M16.7308 5.88461V11.3077H22.1539" stroke="black" stroke-linecap="round" stroke-linejoin="round"/>
<path d="M12.8469 10.5381C13.0117 10.5431 13.1758 10.515 13.3295 10.4555C13.4832 10.3959 13.6234 10.3061 13.7417 10.1913C13.8601 10.0765 13.9541 9.93915 14.0184 9.78734C14.0826 9.63552 14.1158 9.47235 14.1158 9.3075C14.1158 9.14265 14.0826 8.97948 14.0184 8.82767C13.9541 8.67585 13.8601 8.53849 13.7417 8.42372C13.6234 8.30895 13.4832 8.21912 13.3295 8.15955C13.1758 8.09997 13.0117 8.07188 12.8469 8.07692C12.5271 8.08672 12.2236 8.22066 12.0008 8.45037C11.778 8.68008 11.6534 8.9875 11.6534 9.3075C11.6534 9.6275 11.778 9.93492 12.0008 10.1646C12.2236 10.3943 12.5271 10.5283 12.8469 10.5381Z" fill="black"/>
<path fill-rule="evenodd" clip-rule="evenodd" d="M15.3069 13.2046C15.3069 11.8962 14.205 10.9488 12.8458 10.9488C11.4865 10.9488 10.3846 11.895 10.3846 13.2046V13.8208C10.3849 13.9295 10.4283 14.0337 10.5053 14.1105C10.5823 14.1873 10.6866 14.2304 10.7954 14.2304H14.8973C15.0058 14.2301 15.1099 14.1868 15.1866 14.1101C15.2634 14.0333 15.3066 13.9293 15.3069 13.8208V13.2046Z" fill="black"/>
</mask>
<g mask="url(#mask0_144_89)">
<path d="M15 30C23.2843 30 30 23.2843 30 15C30 6.71573 23.2843 0 15 0C6.71573 0 0 6.71573 0 15C0 23.2843 6.71573 30 15 30Z" fill="#FFC7C7"/>
</g>
</svg>
