<svg width="123" height="123" viewBox="0 0 123 123" fill="none" xmlns="http://www.w3.org/2000/svg">
<rect width="123" height="123" rx="61.5" fill="#222831"/>
<path d="M81.4688 69.5C76.2188 66.8125 69.4063 64.625 61.5001 64.625C53.5939 64.625 46.7814 66.8125 41.5314 69.5C40.0066 70.2853 38.7293 71.4779 37.8411 72.9452C36.953 74.4125 36.4889 76.0973 36.5002 77.8124V80.2499C36.5002 83.6874 39.3127 86.4999 42.7502 86.4999H80.25C83.6875 86.4999 86.5 83.6874 86.5 80.2499V77.8124C86.5 74.3124 84.5938 71.0937 81.4688 69.5ZM54.5626 61.5H68.4376C72.2188 61.5 75.125 58.1875 74.625 54.4375L73.6251 46.7813C72.6563 40.8438 67.5001 36.5001 61.5001 36.5001C55.5001 36.5001 50.3439 40.8438 49.3752 46.7813L48.3752 54.4375C47.8752 58.1875 50.7814 61.5 54.5626 61.5Z" fill="#FAFAFA"/>
</svg>
