<svg width="75" height="75" viewBox="0 0 75 75" fill="none" xmlns="http://www.w3.org/2000/svg">
<path d="M55.2313 35.65L49.2782 53.5125C49.1827 53.7982 49.0199 54.0567 48.8034 54.2662C48.5869 54.4756 48.3231 54.6298 48.0344 54.7157L11.5407 65.5657C11.2119 65.6633 10.8626 65.6689 10.5309 65.5818C10.1991 65.4948 9.89763 65.3184 9.65917 65.0719C9.42072 64.8254 9.25444 64.5182 9.17845 64.1837C9.10245 63.8493 9.11964 63.5004 9.22815 63.175L21.0782 27.6313C21.1631 27.3761 21.3019 27.1421 21.4852 26.9453C21.6686 26.7485 21.8921 26.5934 22.1407 26.4907L38.975 19.5594C39.3173 19.4181 39.6937 19.3812 40.0569 19.4535C40.42 19.5258 40.7536 19.704 41.0157 19.9657L54.7782 33.7313C55.0244 33.9775 55.1972 34.2874 55.2773 34.6263C55.3573 34.9652 55.3414 35.3197 55.2313 35.65ZM10.3 64.3813L30.1875 44.4938L10.3 64.3813Z" fill="#222831"/>
<path d="M10.3 64.3813L30.1875 44.4938M55.2313 35.65L49.2782 53.5125C49.1827 53.7982 49.0199 54.0567 48.8034 54.2662C48.5869 54.4756 48.3231 54.6298 48.0344 54.7157L11.5407 65.5657C11.2119 65.6633 10.8626 65.6689 10.5309 65.5818C10.1991 65.4948 9.89763 65.3184 9.65917 65.0719C9.42072 64.8254 9.25444 64.5182 9.17845 64.1837C9.10245 63.8493 9.11964 63.5004 9.22815 63.175L21.0782 27.6313C21.1631 27.3761 21.3019 27.1421 21.4852 26.9453C21.6686 26.7485 21.8921 26.5934 22.1407 26.4907L38.975 19.5594C39.3173 19.4181 39.6937 19.3812 40.0569 19.4535C40.42 19.5258 40.7536 19.704 41.0157 19.9657L54.7782 33.7313C55.0244 33.9775 55.1972 34.2874 55.2773 34.6263C55.3573 34.9652 55.3414 35.3197 55.2313 35.65Z" stroke="#FDFDFD" stroke-width="4" stroke-linecap="round" stroke-linejoin="round"/>
<path d="M57.5094 9.94375L64.8969 17.3313C65.4521 17.8624 65.8955 18.499 66.2013 19.2039C66.507 19.9087 66.6689 20.6675 66.6774 21.4358C66.6859 22.204 66.5408 22.9663 66.2508 23.6777C65.9607 24.3891 65.5314 25.0354 64.9881 25.5787C64.4449 26.122 63.7985 26.5512 63.0871 26.8413C62.3757 27.1314 61.6135 27.2765 60.8452 27.268C60.077 27.2595 59.3182 27.0976 58.6133 26.7919C57.9085 26.4861 57.2718 26.0427 56.7407 25.4875L49.3501 18.1C48.3077 17.0105 47.7333 15.5561 47.75 14.0483C47.7667 12.5405 48.373 11.0992 49.4393 10.033C50.5055 8.96672 51.9468 8.36035 53.4546 8.34368C54.9624 8.327 56.4199 8.90136 57.5094 9.94375Z" fill="black" stroke="#FDFDFD" stroke-width="4" stroke-linecap="round" stroke-linejoin="round"/>
<path d="M36.8156 37.8625C36.3832 37.4148 35.866 37.0577 35.2941 36.812C34.7222 36.5664 34.1071 36.437 33.4847 36.4316C32.8623 36.4262 32.2451 36.5448 31.669 36.7805C31.0929 37.0162 30.5695 37.3643 30.1294 37.8044C29.6893 38.2445 29.3412 38.7679 29.1055 39.344C28.8698 39.92 28.7512 40.5373 28.7566 41.1597C28.7621 41.7821 28.8914 42.3972 29.137 42.9691C29.3827 43.541 29.7398 44.0582 30.1875 44.4906C31.0716 45.3445 32.2557 45.817 33.4847 45.8063C34.7137 45.7956 35.8894 45.3026 36.7585 44.4335C37.6276 43.5644 38.1206 42.3887 38.1313 41.1597C38.142 39.9306 37.6695 38.7466 36.8156 37.8625Z" fill="#FAFAFA" stroke="black" stroke-width="1.5" stroke-linecap="round" stroke-linejoin="round"/>
</svg>
