<svg width="92" height="92" viewBox="0 0 92 92" fill="none" xmlns="http://www.w3.org/2000/svg">
<g clip-path="url(#clip0_35_249)">
<path fill-rule="evenodd" clip-rule="evenodd" d="M3.83337 46C3.83337 22.7125 22.7125 3.83331 46 3.83331C69.2875 3.83331 88.1667 22.7125 88.1667 46C88.1667 69.2875 69.2875 88.1666 46 88.1666C22.7125 88.1666 3.83337 69.2875 3.83337 46ZM56.7334 36.0333C56.1234 35.22 55.2153 34.6823 54.2088 34.5385C53.2024 34.3947 52.18 34.6566 51.3667 35.2666C50.5534 35.8766 50.0157 36.7848 49.8719 37.7912C49.7281 38.7976 49.99 39.82 50.6 40.6333L54.625 46L50.6 51.3666C49.99 52.18 49.7281 53.2023 49.8719 54.2088C50.0157 55.2152 50.5534 56.1233 51.3667 56.7333C52.18 57.3433 53.2024 57.6052 54.2088 57.4615C55.2153 57.3177 56.1234 56.78 56.7334 55.9666L59.4167 52.3901L62.1 55.9666C62.71 56.78 63.6181 57.3177 64.6246 57.4615C65.1229 57.5326 65.6304 57.505 66.1181 57.38C66.6057 57.2551 67.064 57.0354 67.4667 56.7333C67.8694 56.4313 68.2087 56.0529 68.4652 55.6197C68.7217 55.1865 68.8903 54.7071 68.9615 54.2088C69.0327 53.7104 69.005 53.2029 68.8801 52.7153C68.7552 52.2276 68.5354 51.7694 68.2334 51.3666L64.2084 46L68.2334 40.6333C68.8434 39.82 69.1053 38.7976 68.9615 37.7912C68.8177 36.7848 68.28 35.8766 67.4667 35.2666C67.064 34.9646 66.6057 34.7448 66.1181 34.6199C65.6304 34.495 65.1229 34.4673 64.6246 34.5385C63.6181 34.6823 62.71 35.22 62.1 36.0333L59.4167 39.6098L56.7334 36.0333ZM30.6667 38.3333C30.6667 37.3167 30.2628 36.3416 29.5439 35.6227C28.8251 34.9039 27.85 34.5 26.8334 34.5C25.8167 34.5 24.8417 34.9039 24.1228 35.6227C23.4039 36.3416 23 37.3167 23 38.3333V46C23 47.8898 23.5367 50.6421 25.254 53.0303C27.117 55.6216 30.1837 57.5 34.5 57.5C38.8164 57.5 41.883 55.614 43.746 53.0303C45.4634 50.6421 46 47.8936 46 46V38.3333C46 37.3167 45.5962 36.3416 44.8773 35.6227C44.1584 34.9039 43.1834 34.5 42.1667 34.5C41.15 34.5 40.175 34.9039 39.4561 35.6227C38.7372 36.3416 38.3334 37.3167 38.3334 38.3333V46C38.3334 46.6631 38.1034 47.748 37.5207 48.553C37.0837 49.1625 36.317 49.8333 34.5 49.8333C32.683 49.8333 31.9164 49.1625 31.4794 48.553C30.9691 47.7976 30.687 46.9113 30.6667 46V38.3333Z" fill="#FAFAFA"/>
<path d="M88.2533 83.2533L70.4666 65.4666M34.8933 50.6444C34.8933 53.3695 35.4301 56.0679 36.4729 58.5855C37.5157 61.1032 39.0443 63.3908 40.9712 65.3177C42.8981 67.2446 45.1857 68.7731 47.7033 69.8159C50.221 70.8588 52.9193 71.3955 55.6444 71.3955C58.3695 71.3955 61.0679 70.8588 63.5855 69.8159C66.1032 68.7731 68.3908 67.2446 70.3177 65.3177C72.2446 63.3908 73.7731 61.1032 74.8159 58.5855C75.8588 56.0679 76.3955 53.3695 76.3955 50.6444C76.3955 47.9193 75.8588 45.221 74.8159 42.7033C73.7731 40.1857 72.2446 37.8981 70.3177 35.9712C68.3908 34.0443 66.1032 32.5157 63.5855 31.4729C61.0679 30.4301 58.3695 29.8933 55.6444 29.8933C52.9193 29.8933 50.221 30.4301 47.7033 31.4729C45.1857 32.5157 42.8981 34.0443 40.9712 35.9712C39.0443 37.8981 37.5157 40.1857 36.4729 42.7033C35.4301 45.221 34.8933 47.9193 34.8933 50.6444Z" stroke="#222831" stroke-width="5" stroke-linecap="round" stroke-linejoin="round"/>
</g>
<defs>
<clipPath id="clip0_35_249">
<rect width="92" height="92" fill="white"/>
</clipPath>
</defs>
</svg>
