<svg width="123" height="123" viewBox="0 0 123 123" fill="none" xmlns="http://www.w3.org/2000/svg">
<circle cx="61.5" cy="61.5" r="61.5" fill="#222831"/>
<path d="M52.0905 91.7578L59.4121 65.5319C59.4863 65.266 59.3309 64.9902 59.0649 64.9159L44.3907 60.8192C44.1247 60.745 43.8489 60.9004 43.7746 61.1664L36.5738 86.9597C36.4317 87.4688 37.0737 87.8215 37.4271 87.4285L45.9842 77.9141C46.2431 77.6262 46.7168 77.7292 46.8329 78.0985L51.1319 91.7733C51.2811 92.248 51.9567 92.2371 52.0905 91.7578Z" fill="#FAFAFA" stroke="#222831"/>
<path d="M85.46 84.883L76.6355 61.447C76.5382 61.1886 76.2499 61.0579 75.9914 61.1553L61.2287 66.7139C60.9702 66.8112 60.8396 67.0996 60.9369 67.3581L69.6224 90.4249C69.8041 90.9075 70.509 90.8324 70.5848 90.3222L72.3814 78.245C72.435 77.8841 72.8447 77.7004 73.1499 77.9003L84.7181 85.4774C85.1227 85.7425 85.6304 85.3357 85.46 84.883Z" fill="#FAFAFA" stroke="#222831"/>
<path d="M38.675 57.707L38.6749 57.7065C38.5645 57.2915 38.6227 56.8498 38.8368 56.4775C38.8369 56.4774 38.837 56.4773 38.837 56.4771L41.1774 52.4303L41.3221 52.1801L41.1775 51.9298L38.8389 47.8825C38.8389 47.8825 38.8389 47.8824 38.8389 47.8824C38.6243 47.5103 38.5661 47.0682 38.677 46.6531C38.7879 46.2381 39.0589 45.8839 39.4305 45.6684L43.4779 43.3256L43.7275 43.1812V42.8929V38.2303C43.7275 37.8005 43.8982 37.3884 44.202 37.0845C44.5059 36.7806 44.9181 36.6099 45.3478 36.6099H50.0104H50.2989L50.4433 36.3601L52.7842 32.3103L52.7846 32.3096C52.8907 32.1253 53.0322 31.9637 53.201 31.8342C53.3697 31.7046 53.5623 31.6097 53.7679 31.5548C53.9734 31.4999 54.1877 31.4861 54.3985 31.5142C54.6094 31.5423 54.8126 31.6117 54.9966 31.7185L54.9974 31.719L59.0451 34.0598L59.2952 34.2045L59.5453 34.0601L63.5973 31.7213L63.5985 31.7206C63.7823 31.6138 63.9854 31.5446 64.1961 31.5168C64.4068 31.4891 64.6209 31.5034 64.8261 31.5589L64.8264 31.5589C65.2415 31.671 65.5954 31.9428 65.811 32.3148C65.8111 32.3148 65.8111 32.3149 65.8111 32.315L68.1496 36.3622L68.2939 36.612H68.5825H73.2451C73.6749 36.612 74.087 36.7828 74.3909 37.0866C74.6948 37.3905 74.8655 37.8026 74.8655 38.2324V42.895V43.1835L75.1152 43.3278L79.1629 45.6687L79.1632 45.6689C79.5353 45.8838 79.8069 46.2377 79.9181 46.6528C80.0293 47.0678 79.9711 47.5101 79.7562 47.8823L77.4156 51.9297L77.2709 52.1798L77.4154 52.43L79.7541 56.4799L79.7544 56.4803C79.8609 56.6644 79.9301 56.8678 79.958 57.0787C79.9859 57.2897 79.9719 57.5041 79.9168 57.7096C79.8618 57.9151 79.7667 58.1078 79.6371 58.2765C79.5075 58.4452 79.3459 58.5868 79.1615 58.693L79.1608 58.6934L75.113 61.0343L74.8633 61.1786V61.4671V66.1297C74.8633 66.5595 74.6926 66.9716 74.3888 67.2755C74.0849 67.5793 73.6727 67.7501 73.243 67.7501H68.5804H68.2918L68.1474 67.9999L65.8091 72.0469C65.5935 72.4186 65.2394 72.6898 64.8243 72.801C64.4094 72.9122 63.9675 72.8545 63.595 72.6407C63.5948 72.6406 63.5946 72.6404 63.5944 72.6403L59.5456 70.3001L59.2954 70.1555L59.0453 70.3L54.9985 72.6382C54.9985 72.6382 54.9984 72.6383 54.9984 72.6383C54.6258 72.8523 54.1837 72.9101 53.7686 72.7989C53.3536 72.6877 52.9996 72.4167 52.784 72.0451C52.7839 72.045 52.7838 72.0449 52.7838 72.0448L50.4433 67.9956L50.2989 67.7458H50.0104H45.3478C44.9181 67.7458 44.5059 67.5751 44.202 67.2712C43.8982 66.9674 43.7275 66.5552 43.7275 66.1255V61.4628V61.1744L43.4778 61.03L39.43 58.6892L39.4282 58.6881C39.2439 58.5826 39.0825 58.4415 38.9532 58.2731C38.8239 58.1047 38.7293 57.9123 38.675 57.707Z" fill="#FAFAFA" stroke="#222831"/>
</svg>
