<svg width="123" height="123" viewBox="0 0 123 123" fill="none" xmlns="http://www.w3.org/2000/svg">
<rect width="123" height="123" rx="61.5" fill="#222831"/>
<mask id="path-2-inside-1_32_42" fill="white">
<path d="M56.8813 49.1177C56.671 49.1163 56.4625 49.1564 56.2677 49.2357C56.0729 49.315 55.8957 49.4319 55.7461 49.5797C55.5965 49.7275 55.4776 49.9034 55.396 50.0972C55.3145 50.2911 55.2719 50.4991 55.2708 50.7094C55.2708 51.5865 55.9917 52.299 56.8813 52.299C57.3052 52.3012 57.7128 52.135 58.0143 51.837C58.3159 51.5389 58.4868 51.1334 58.4896 50.7094C58.4885 50.4993 58.446 50.2914 58.3646 50.0977C58.2832 49.904 58.1644 49.7282 58.0151 49.5804C57.8657 49.4326 57.6887 49.3157 57.4942 49.2363C57.2996 49.1569 57.0914 49.1166 56.8813 49.1177ZM40.4479 53.376C38.2104 53.376 36.7313 54.4635 36.7313 56.1115C36.7313 57.4323 37.525 58.3198 38.9146 58.6635L40.6562 59.101C41.1729 59.2635 41.3812 59.5177 41.3792 59.9135C41.3792 60.351 40.9417 60.5948 40.4958 60.6156C39.85 60.6448 39.3771 60.2948 39.3417 59.7365H36.5C36.5417 61.4031 38.1708 62.574 40.6125 62.574C42.9208 62.574 44.4188 61.5052 44.4188 59.6948C44.4188 58.374 43.5875 57.5406 42.2167 57.1781L40.5292 56.7115C39.9583 56.5427 39.7604 56.2906 39.7604 55.9365C39.7604 55.551 40.0646 55.324 40.4583 55.2781C41.0292 55.2115 41.4708 55.4594 41.4708 56.074V56.1156H44.375V56.074C44.375 54.3365 42.9021 53.376 40.4479 53.376ZM45.625 53.6177V62.3469H48.3708V58.5531L51.025 62.3448H54.4L51.0062 57.7594L54.3479 53.6406H51.0979L48.3708 57.3073V53.6198L45.625 53.6177ZM55.5083 53.6177V62.3469H58.2542V53.6177H55.5083ZM59.85 53.6177V62.349H66.5542V59.7573H62.6125V53.6198L59.85 53.6177ZM68.0521 53.6177V62.349H74.7563V59.7573H70.8146V53.6198L68.0521 53.6177ZM40.4479 64.676C38.2104 64.676 36.7313 65.7635 36.7313 67.4094C36.7313 68.7323 37.525 69.6177 38.9146 69.9615L40.6562 70.399C41.1729 70.5615 41.3812 70.8156 41.3792 71.2115C41.3792 71.649 40.9417 71.8948 40.4958 71.9156C39.85 71.9448 39.3771 71.5927 39.3417 71.0344H36.5C36.5417 72.701 38.1708 73.8719 40.6125 73.8719C42.9208 73.8719 44.4188 72.8052 44.4188 70.9927C44.4188 69.6719 43.5875 68.8385 42.2167 68.4781L40.5292 68.0094C39.9583 67.8406 39.7604 67.5906 39.7604 67.2365C39.7604 66.849 40.0646 66.6219 40.4583 66.576C41.0292 66.5094 41.4708 66.7573 41.4708 67.374V67.4135H44.375V67.3719C44.375 65.6344 42.9021 64.676 40.4479 64.676ZM59.5938 64.7073C57.0625 64.7073 55.4562 66.6927 55.4562 69.2948C55.4562 71.9135 56.9563 73.8823 59.5563 73.8802C60.7646 73.8802 61.8479 73.2844 62.3187 72.4177V73.6469H65.0646V64.9406H62.3187V66.1885C61.85 65.3031 60.8562 64.7073 59.5917 64.7073H59.5938ZM77.825 64.7073C74.9917 64.7073 73.1312 66.4406 73.1312 69.2948C73.1312 72.2031 74.9542 73.8823 77.9146 73.8823C80.2271 73.8823 81.9792 72.7448 82.2479 71.0281H79.5396C79.3042 71.5698 78.7625 71.8052 77.9146 71.8052C76.6854 71.8052 75.9271 71.1906 75.8729 70.0531H82.3042C82.3583 69.5656 82.3771 69.2948 82.3771 68.8427C82.3771 66.3865 80.5354 64.7073 77.825 64.7073ZM71.8458 64.7969C70.7833 64.7969 69.7521 65.4635 69.4458 66.7656V64.9406H66.6813V73.6469H69.4458V70.2865C69.4458 68.3552 70.2417 67.3802 71.7375 67.3802C72.0113 67.3783 72.2849 67.3957 72.5562 67.4323L72.5708 64.8698C72.3343 64.8126 72.089 64.7881 71.8458 64.7969ZM45.625 64.9385V73.6698H48.3333V70.576H51.6458V73.6698H54.3542V64.9385H51.6458V68.074H48.3333V64.9385H45.625ZM77.8083 66.5656C78.9833 66.5656 79.6333 67.1802 79.6521 68.3365H75.875C75.8917 67.2719 76.6188 66.5656 77.8083 66.5656ZM60.35 67.0177C61.725 67.0177 62.4271 68.0469 62.4271 69.2948C62.4271 70.5594 61.725 71.5865 60.35 71.5865C59.0667 71.5865 58.2729 70.6115 58.2729 69.2948C58.2729 67.974 59.0688 67.0177 60.35 67.0177ZM84.8917 70.6448C84.6816 70.6437 84.4733 70.684 84.2787 70.7634C84.0842 70.8428 83.9072 70.9597 83.7579 71.1075C83.6085 71.2553 83.4897 71.4311 83.4083 71.6248C83.3269 71.8185 83.2844 72.0263 83.2833 72.2365C83.2833 73.1156 84.0021 73.8281 84.8917 73.8281C85.1018 73.8292 85.3101 73.7889 85.5046 73.7095C85.6991 73.6301 85.8761 73.5132 86.0255 73.3654C86.1748 73.2176 86.2936 73.0418 86.375 72.8481C86.4564 72.6544 86.4989 72.4466 86.5 72.2365C86.4989 72.0263 86.4564 71.8185 86.375 71.6248C86.2936 71.4311 86.1748 71.2553 86.0255 71.1075C85.8761 70.9597 85.6991 70.8428 85.5046 70.7634C85.3101 70.684 85.1018 70.6437 84.8917 70.6448Z"/>
</mask>
<path d="M56.8813 49.1177C56.671 49.1163 56.4625 49.1564 56.2677 49.2357C56.0729 49.315 55.8957 49.4319 55.7461 49.5797C55.5965 49.7275 55.4776 49.9034 55.396 50.0972C55.3145 50.2911 55.2719 50.4991 55.2708 50.7094C55.2708 51.5865 55.9917 52.299 56.8813 52.299C57.3052 52.3012 57.7128 52.135 58.0143 51.837C58.3159 51.5389 58.4868 51.1334 58.4896 50.7094C58.4885 50.4993 58.446 50.2914 58.3646 50.0977C58.2832 49.904 58.1644 49.7282 58.0151 49.5804C57.8657 49.4326 57.6887 49.3157 57.4942 49.2363C57.2996 49.1569 57.0914 49.1166 56.8813 49.1177ZM40.4479 53.376C38.2104 53.376 36.7313 54.4635 36.7313 56.1115C36.7313 57.4323 37.525 58.3198 38.9146 58.6635L40.6562 59.101C41.1729 59.2635 41.3812 59.5177 41.3792 59.9135C41.3792 60.351 40.9417 60.5948 40.4958 60.6156C39.85 60.6448 39.3771 60.2948 39.3417 59.7365H36.5C36.5417 61.4031 38.1708 62.574 40.6125 62.574C42.9208 62.574 44.4188 61.5052 44.4188 59.6948C44.4188 58.374 43.5875 57.5406 42.2167 57.1781L40.5292 56.7115C39.9583 56.5427 39.7604 56.2906 39.7604 55.9365C39.7604 55.551 40.0646 55.324 40.4583 55.2781C41.0292 55.2115 41.4708 55.4594 41.4708 56.074V56.1156H44.375V56.074C44.375 54.3365 42.9021 53.376 40.4479 53.376ZM45.625 53.6177V62.3469H48.3708V58.5531L51.025 62.3448H54.4L51.0062 57.7594L54.3479 53.6406H51.0979L48.3708 57.3073V53.6198L45.625 53.6177ZM55.5083 53.6177V62.3469H58.2542V53.6177H55.5083ZM59.85 53.6177V62.349H66.5542V59.7573H62.6125V53.6198L59.85 53.6177ZM68.0521 53.6177V62.349H74.7563V59.7573H70.8146V53.6198L68.0521 53.6177ZM40.4479 64.676C38.2104 64.676 36.7313 65.7635 36.7313 67.4094C36.7313 68.7323 37.525 69.6177 38.9146 69.9615L40.6562 70.399C41.1729 70.5615 41.3812 70.8156 41.3792 71.2115C41.3792 71.649 40.9417 71.8948 40.4958 71.9156C39.85 71.9448 39.3771 71.5927 39.3417 71.0344H36.5C36.5417 72.701 38.1708 73.8719 40.6125 73.8719C42.9208 73.8719 44.4188 72.8052 44.4188 70.9927C44.4188 69.6719 43.5875 68.8385 42.2167 68.4781L40.5292 68.0094C39.9583 67.8406 39.7604 67.5906 39.7604 67.2365C39.7604 66.849 40.0646 66.6219 40.4583 66.576C41.0292 66.5094 41.4708 66.7573 41.4708 67.374V67.4135H44.375V67.3719C44.375 65.6344 42.9021 64.676 40.4479 64.676ZM59.5938 64.7073C57.0625 64.7073 55.4562 66.6927 55.4562 69.2948C55.4562 71.9135 56.9563 73.8823 59.5563 73.8802C60.7646 73.8802 61.8479 73.2844 62.3187 72.4177V73.6469H65.0646V64.9406H62.3187V66.1885C61.85 65.3031 60.8562 64.7073 59.5917 64.7073H59.5938ZM77.825 64.7073C74.9917 64.7073 73.1312 66.4406 73.1312 69.2948C73.1312 72.2031 74.9542 73.8823 77.9146 73.8823C80.2271 73.8823 81.9792 72.7448 82.2479 71.0281H79.5396C79.3042 71.5698 78.7625 71.8052 77.9146 71.8052C76.6854 71.8052 75.9271 71.1906 75.8729 70.0531H82.3042C82.3583 69.5656 82.3771 69.2948 82.3771 68.8427C82.3771 66.3865 80.5354 64.7073 77.825 64.7073ZM71.8458 64.7969C70.7833 64.7969 69.7521 65.4635 69.4458 66.7656V64.9406H66.6813V73.6469H69.4458V70.2865C69.4458 68.3552 70.2417 67.3802 71.7375 67.3802C72.0113 67.3783 72.2849 67.3957 72.5562 67.4323L72.5708 64.8698C72.3343 64.8126 72.089 64.7881 71.8458 64.7969ZM45.625 64.9385V73.6698H48.3333V70.576H51.6458V73.6698H54.3542V64.9385H51.6458V68.074H48.3333V64.9385H45.625ZM77.8083 66.5656C78.9833 66.5656 79.6333 67.1802 79.6521 68.3365H75.875C75.8917 67.2719 76.6188 66.5656 77.8083 66.5656ZM60.35 67.0177C61.725 67.0177 62.4271 68.0469 62.4271 69.2948C62.4271 70.5594 61.725 71.5865 60.35 71.5865C59.0667 71.5865 58.2729 70.6115 58.2729 69.2948C58.2729 67.974 59.0688 67.0177 60.35 67.0177ZM84.8917 70.6448C84.6816 70.6437 84.4733 70.684 84.2787 70.7634C84.0842 70.8428 83.9072 70.9597 83.7579 71.1075C83.6085 71.2553 83.4897 71.4311 83.4083 71.6248C83.3269 71.8185 83.2844 72.0263 83.2833 72.2365C83.2833 73.1156 84.0021 73.8281 84.8917 73.8281C85.1018 73.8292 85.3101 73.7889 85.5046 73.7095C85.6991 73.6301 85.8761 73.5132 86.0255 73.3654C86.1748 73.2176 86.2936 73.0418 86.375 72.8481C86.4564 72.6544 86.4989 72.4466 86.5 72.2365C86.4989 72.0263 86.4564 71.8185 86.375 71.6248C86.2936 71.4311 86.1748 71.2553 86.0255 71.1075C85.8761 70.9597 85.6991 70.8428 85.5046 70.7634C85.3101 70.684 85.1018 70.6437 84.8917 70.6448Z" fill="#FDFDFD" stroke="#FDFDFD" stroke-width="2" mask="url(#path-2-inside-1_32_42)"/>
</svg>
